<svg width="30" height="30" viewBox="0 0 30 30" fill="none" xmlns="http://www.w3.org/2000/svg">
<g id="take test">
<g id="Group 516">
<path id="Vector 216" d="M6 10.2925C6 10.2925 8.57195 7.99995 10.5652 8C13.9891 8.00008 15.5558 10.8731 18.9348 11.4387C21.2174 11.8208 23.5 10.2925 23.5 10.2925" stroke="#A1A1A1" stroke-width="1.5" stroke-linecap="round"/>
<path id="Vector 217" d="M6 15.5425C6 15.5425 8.57195 13.25 10.5652 13.25C13.9891 13.2501 15.5558 16.1231 18.9348 16.6887C21.2174 17.0708 23.5 15.5425 23.5 15.5425" stroke="#A1A1A1" stroke-width="1.5" stroke-linecap="round"/>
<path id="Vector 218" d="M6 20.7925C6 20.7925 8.57195 18.5 10.5652 18.5C13.9891 18.5001 15.5558 21.3731 18.9348 21.9387C21.2174 22.3208 23.5 20.7925 23.5 20.7925" stroke="#A1A1A1" stroke-width="1.5" stroke-linecap="round"/>
</g>
</g>
</svg>
