<svg width="81" height="82" viewBox="0 0 81 82" fill="none" xmlns="http://www.w3.org/2000/svg">
<g clip-path="url(#clip0_2410_5349)">
<path d="M61.8088 40.6562C61.6207 43.8243 59.4966 46.9172 56.4994 48.1321C52.2951 49.8361 46.7489 47.69 44.1859 42.6251C43.7828 40.6179 43.1132 38.6736 42.195 36.8438C41.0146 34.494 39.2354 30.9559 36.3024 29.1657H36.3008C35.6718 28.7776 34.9895 28.4834 34.2755 28.2925C31.9554 27.6765 30.4584 28.5073 28.8939 27.1215C27.9361 26.2719 27.1147 24.7341 27.5787 23.6728C28.1822 22.2949 30.3988 22.9783 31.3033 21.5032C32.2674 19.9341 30.4458 18.0467 31.4083 16.813C32.0777 15.9571 33.8162 15.7674 35.0389 16.3552C37.384 17.4808 36.4701 20.8072 38.9156 24.187C40.2245 25.996 41.789 26.7923 43.9053 27.9555C49.627 31.1001 52.1665 28.9791 56.3066 31.5939C56.9242 31.9842 62.1224 35.375 61.8088 40.6562Z" fill="#FF8E66"/>
<path d="M28.9529 23.8546C29.1708 23.4912 29.2714 23.0694 29.2411 22.6466C28.5312 22.8249 27.8694 23.0113 27.5797 23.6728C27.4333 24.043 27.4057 24.4497 27.5009 24.8363C28.0677 24.6676 28.6066 24.4194 28.9529 23.8546ZM56.3076 31.5939C52.1676 28.9791 49.628 31.1001 43.9063 27.9555C41.79 26.7923 40.2256 25.996 38.9166 24.187C36.4711 20.8072 37.3851 17.4808 35.0399 16.3552C33.8172 15.7674 32.0787 15.9571 31.4094 16.813C31.0601 17.2607 31.078 17.7948 31.1958 18.3682C31.7118 18.3741 32.2205 18.4894 32.6885 18.7066C35.0337 19.8322 34.1197 23.1586 36.5652 26.5384C37.8742 28.3474 39.4386 29.1437 41.5549 30.3069C47.2766 33.4515 49.8162 31.3305 53.9562 33.9453C54.5738 34.3356 59.772 37.7264 59.4585 43.0076C59.3501 44.5716 58.8228 46.0776 57.9319 47.3677C60.1564 45.8743 61.6534 43.2918 61.8099 40.6562C62.1234 35.3749 56.9252 31.9842 56.3076 31.5939Z" fill="#FF7C4E"/>
<path d="M38.4908 27.3049C37.9957 28.1573 37.2233 28.8141 36.3024 29.1657H36.3008C35.6718 28.7776 34.9895 28.4834 34.2755 28.2925C31.9554 27.6765 30.4584 28.5073 28.8939 27.1215C27.9361 26.2719 27.1147 24.7341 27.5787 23.6728C28.1822 22.2949 30.3988 22.9783 31.3033 21.5032C32.2674 19.9341 30.4458 18.0467 31.4083 16.813C32.0777 15.9571 33.8162 15.7674 35.0389 16.3552C37.384 17.4808 36.4701 20.8072 38.9156 24.187C39.1715 25.2427 39.0198 26.3561 38.4908 27.3049Z" fill="#F7F7F7"/>
<path d="M38.4908 27.3049C38.3387 27.5706 38.1579 27.8187 37.9515 28.0448C37.4957 28.5407 36.9312 28.9243 36.3024 29.1657H36.3008C35.6718 28.7776 34.9895 28.4834 34.2755 28.2925C31.9554 27.6765 30.4584 28.5073 28.8939 27.1215C27.9361 26.2719 27.1147 24.7341 27.5787 23.6728C28.1822 22.2949 30.3988 22.9783 31.3033 21.5032C31.9167 20.5036 31.4021 19.3746 31.1956 18.368H31.1951C31.1842 18.3116 31.1732 18.2567 31.1638 18.2019C31.1622 18.2003 31.1622 18.1987 31.1622 18.1956C31.1348 18.0392 31.1201 17.8809 31.1183 17.7222C31.1074 17.3948 31.2098 17.0736 31.4083 16.813C32.0777 15.9571 33.8162 15.7674 35.0389 16.3552C37.384 17.4808 36.4701 20.8072 38.9156 24.187C39.1715 25.2427 39.0198 26.3561 38.4908 27.3049Z" fill="#F7F7F7"/>
<path d="M38.4904 27.3049C38.3384 27.5706 38.1575 27.8187 37.9512 28.0448C37.4299 27.6002 36.9642 27.0944 36.5638 26.5384C34.1184 23.1586 35.0323 19.8322 32.6871 18.7066C32.2193 18.4893 31.7106 18.3739 31.1948 18.368C31.1838 18.3116 31.1728 18.2567 31.1634 18.2019C31.1619 18.2003 31.1619 18.1987 31.1619 18.1956C31.1344 18.0392 31.1197 17.8809 31.118 17.7222C31.1071 17.3948 31.2095 17.0736 31.408 16.813C32.0773 15.9571 33.8158 15.7674 35.0386 16.3552C37.3837 17.4808 36.4698 20.8072 38.9152 24.187C39.1711 25.2427 39.0194 26.3561 38.4904 27.3049Z" fill="#F2F2F2"/>
<path d="M72.8492 57.7017C72.4108 66.7484 55.9566 74.1688 42.3045 73.9256C32.1113 73.7441 16.3553 69.1846 14.7744 59.2916C13.4985 51.3072 22.9347 43.712 24.8865 42.1317C26.7571 40.617 31.6633 36.7501 39.0395 35.9318C48.0584 34.9312 54.7846 39.1521 58.8326 41.6924C63.8349 44.8315 73.1884 50.7013 72.8492 57.7017Z" fill="#FFA585"/>
<path d="M58.8306 41.6924C54.7825 39.1521 48.0564 34.9312 39.0374 35.9318C38.758 35.9628 38.4832 35.9995 38.2109 36.039C44.1457 36.9057 48.7233 39.7765 51.7763 41.6924C56.7787 44.8315 66.1323 50.7013 65.7929 57.7017C65.3987 65.836 52.0562 72.6543 39.4446 73.7703C40.4322 73.8574 41.3897 73.9093 42.3024 73.9255C55.9545 74.1688 72.4087 66.7482 72.8471 57.7017C73.1863 50.7013 63.8329 44.8317 58.8306 41.6924Z" fill="#FF9670"/>
<path d="M37.3551 48.7988C37.2664 49.7937 36.8712 52.7115 34.5359 54.8132C31.5351 57.5135 26.5548 57.7645 22.3281 55.2118C21.2779 54.2453 20.3463 53.1573 19.553 51.9708C17.9057 49.5026 18.2873 48.7229 16.8242 46.1229C16.002 44.6616 14.1013 41.6549 10.7749 40.0829C10.1062 39.765 9.39493 39.5458 8.66329 39.4323C6.29151 39.0671 4.89164 40.0531 3.18766 38.8398C2.1452 38.0983 1.16388 36.6561 1.51346 35.551C1.96649 34.1182 4.24265 34.5602 4.9857 32.9973C5.77734 31.3357 3.76453 29.6521 4.59223 28.3243C5.16597 27.401 6.87466 27.0279 8.15225 27.4825C10.604 28.3525 10.0491 31.7558 12.841 34.8565C14.3349 36.5166 15.973 37.1421 18.2037 38.0748C22.4519 39.8509 26.9807 38.5905 31.1568 40.5704C34.2842 42.0518 37.1843 45.1933 37.3551 48.7988Z" fill="#FF8E66"/>
<path d="M31.1595 40.5702C26.9834 38.5903 22.4546 39.8507 18.2064 38.0746C15.9757 37.1418 14.3376 36.5164 12.8437 34.8563C10.0518 31.7556 10.6067 28.3523 8.15495 27.4823C6.89209 27.033 5.21005 27.3932 4.61719 28.2932C5.81484 29.7108 5.91046 32.3793 8.14084 34.8563C9.63477 36.5164 11.2729 37.1418 13.5036 38.0746C17.7518 39.8507 22.2806 38.5903 26.4567 40.5702C29.5841 42.0516 32.4841 45.1931 32.655 48.7985C32.5663 49.7935 32.1711 52.7113 29.8358 54.813C28.7719 55.7548 27.4873 56.4128 26.1012 56.7257C29.2594 57.4158 32.4012 56.7363 34.5386 54.813C36.8739 52.7114 37.2691 49.7935 37.3578 48.7985C37.187 45.1931 34.2869 42.0516 31.1595 40.5702Z" fill="#FF7C4E"/>
<path d="M12.7485 38.0027C12.3491 38.9022 11.6521 39.6368 10.7749 40.0829C10.1062 39.765 9.39493 39.5458 8.66329 39.4323C6.29151 39.0671 4.89164 40.0531 3.18766 38.8398C2.1452 38.0983 1.16388 36.6561 1.51346 35.551C1.96649 34.1182 4.24265 34.5602 4.9857 32.9973C5.77734 31.3357 3.76453 29.6521 4.59223 28.3243C5.16597 27.401 6.87466 27.0279 8.15225 27.4825C10.604 28.3525 10.0491 31.7558 12.841 34.8565C13.2062 35.8797 13.1731 37.0028 12.7485 38.0027Z" fill="#F7F7F7"/>
<path d="M12.8315 37.7965C12.8065 37.8655 12.7782 37.9344 12.7485 38.0034C12.3491 38.9029 11.6521 39.6375 10.7749 40.0836C10.1062 39.7657 9.39493 39.5466 8.66329 39.4331C6.29151 39.0678 4.89164 40.0538 3.18766 38.8405C2.1452 38.099 1.16388 36.6569 1.51346 35.5517C1.96649 34.1189 4.24265 34.561 4.9857 32.9981C5.77734 31.3364 3.76453 29.6528 4.59223 28.325C4.61115 28.2934 4.63209 28.263 4.65493 28.2341C4.66904 28.2153 4.68472 28.1965 4.69883 28.1777C4.71293 28.1589 4.72861 28.1401 4.74585 28.1213C4.77877 28.0852 4.81326 28.0491 4.84932 28.0147C4.86603 27.9963 4.8844 27.9795 4.90418 27.9645C4.9418 27.9316 4.98256 27.8987 5.02332 27.8673C5.0437 27.8516 5.06408 27.8375 5.08602 27.8218C5.10797 27.8077 5.12992 27.7921 5.15186 27.778C5.17548 27.7613 5.20008 27.7461 5.22554 27.7325C5.24592 27.7199 5.26787 27.7074 5.28824 27.6964C5.38722 27.6404 5.48987 27.5912 5.59549 27.5491C5.64566 27.5287 5.69425 27.5099 5.74598 27.4926C5.8275 27.4629 5.91058 27.4378 5.99523 27.4158C6.04696 27.4017 6.10026 27.3892 6.15356 27.3782C6.16043 27.375 6.16793 27.3734 6.17551 27.3735C6.20059 27.3672 6.22724 27.3625 6.25389 27.3578C6.31502 27.3453 6.37773 27.3359 6.43887 27.328C6.46551 27.3233 6.49373 27.3202 6.52195 27.3171C7.07096 27.2488 7.6283 27.3056 8.15225 27.4832C10.604 28.3533 10.0491 31.7565 12.841 34.8572C13.1801 35.8082 13.1768 36.8477 12.8315 37.7965Z" fill="#F7F7F7"/>
<path d="M12.8307 37.7965C10.9339 37.0033 9.47755 36.3465 8.13725 34.8572C5.90655 32.3804 5.81093 29.7124 4.61328 28.2937C4.62582 28.2733 4.63993 28.2545 4.65404 28.2341C4.66815 28.2153 4.68382 28.1965 4.69793 28.1777C4.71204 28.1589 4.72772 28.1401 4.74496 28.1213C4.77788 28.0852 4.81237 28.0491 4.84842 28.0147C4.86514 27.9963 4.88351 27.9795 4.90329 27.9645C4.94091 27.9316 4.98167 27.8987 5.02243 27.8673C5.0428 27.8516 5.06318 27.8375 5.08513 27.8218C5.10708 27.8077 5.12902 27.7921 5.15097 27.778C5.17458 27.7613 5.19919 27.7461 5.22465 27.7325C5.24503 27.7199 5.26697 27.7074 5.28735 27.6964C5.38632 27.6404 5.48897 27.5912 5.5946 27.5491C5.64476 27.5287 5.69336 27.5099 5.74509 27.4926C5.82661 27.4629 5.90969 27.4378 5.99434 27.4158C6.04607 27.4017 6.09937 27.3892 6.15267 27.3782C6.15953 27.375 6.16704 27.3734 6.17461 27.3735C6.1997 27.3672 6.22634 27.3625 6.25299 27.3578C6.31413 27.3453 6.37683 27.3359 6.43797 27.328C6.46462 27.3233 6.49284 27.3202 6.52105 27.3171C7.07007 27.2488 7.6274 27.3056 8.15136 27.4832C10.6031 28.3533 10.0482 31.7565 12.8401 34.8572C13.1792 35.8082 13.1759 36.8477 12.8307 37.7965Z" fill="#F2F2F2"/>
<path d="M71.659 75.3686H9.13363C8.24003 75.3686 7.36491 75.114 6.61077 74.6346C5.85663 74.1553 5.25467 73.4709 4.8754 72.6618L1.44141 65.3359H79.3513L75.9173 72.6618C75.538 73.4709 74.936 74.1553 74.1819 74.6346C73.4277 75.114 72.5526 75.3686 71.659 75.3686Z" fill="#676E87"/>
<path d="M72.2977 65.3359L68.8637 72.662C68.4844 73.4711 67.8825 74.1554 67.1283 74.6348C66.3742 75.1142 65.4991 75.3688 64.6055 75.3688H71.6597C72.5533 75.3688 73.4284 75.1142 74.1825 74.6348C74.9367 74.1554 75.5386 73.4711 75.9179 72.662L79.3519 65.3361L72.2977 65.3359Z" fill="#595F74"/>
<path d="M20.7165 24.0844C20.5127 24.0846 20.3123 24.0319 20.135 23.9313C19.9578 23.8308 19.8097 23.6858 19.7054 23.5108C18.8645 22.1007 18.5131 20.6874 18.661 19.3101C18.7742 18.256 19.1478 17.5456 19.4773 16.9187C19.7389 16.4706 19.9361 15.9879 20.0633 15.4848C20.3025 14.4329 20.1303 13.2306 19.5516 11.911C19.4896 11.7696 19.456 11.6173 19.4529 11.463C19.4497 11.3086 19.477 11.1551 19.5331 11.0113C19.6465 10.7208 19.8706 10.4873 20.1562 10.362C20.4418 10.2368 20.7654 10.2302 21.0559 10.3435C21.3464 10.4569 21.5799 10.6811 21.7052 10.9667C22.4905 12.7575 22.7094 14.453 22.356 16.0065C22.1854 16.7094 21.917 17.3848 21.5586 18.013C21.2717 18.5589 21.0643 18.9533 20.999 19.5614C20.9066 20.4204 21.151 21.3437 21.7251 22.3062C21.8315 22.4846 21.8887 22.688 21.891 22.8957C21.8932 23.1034 21.8404 23.308 21.7379 23.4886C21.6355 23.6693 21.487 23.8196 21.3075 23.9242C21.1281 24.0289 20.9242 24.0841 20.7165 24.0844ZM72.2313 44.3796C72.0275 44.3799 71.8271 44.3272 71.6499 44.2266C71.4726 44.126 71.3245 43.981 71.2202 43.8059C70.3794 42.3954 70.0279 40.9822 70.1759 39.6053C70.2892 38.5511 70.6628 37.8407 70.9923 37.2138C71.2538 36.7657 71.451 36.283 71.5781 35.7799C71.8175 34.7281 71.6452 33.5257 71.0666 32.2063C71.0028 32.0646 70.9677 31.9117 70.9634 31.7564C70.959 31.6011 70.9855 31.4465 71.0412 31.3014C71.097 31.1564 71.181 31.0239 71.2883 30.9115C71.3956 30.7992 71.5241 30.7092 71.6663 30.6468C71.8086 30.5844 71.9619 30.5508 72.1172 30.5479C72.2725 30.5451 72.4269 30.5731 72.5714 30.6303C72.7158 30.6875 72.8475 30.7727 72.9588 30.8811C73.0701 30.9895 73.1589 31.1189 73.2199 31.2618C74.0052 33.0525 74.2244 34.7481 73.8709 36.3016C73.7004 37.0045 73.432 37.6799 73.0736 38.3082C72.7867 38.854 72.5792 39.2484 72.514 39.8565C72.4215 40.7154 72.666 41.6388 73.2399 42.6017C73.3462 42.7801 73.4034 42.9834 73.4056 43.1911C73.4078 43.3987 73.355 43.6033 73.2525 43.7839C73.1501 43.9645 73.0016 44.1148 72.8223 44.2194C72.6429 44.3241 72.439 44.3793 72.2313 44.3796ZM64.42 31.2936C64.2162 31.2938 64.0159 31.2411 63.8387 31.1405C63.6614 31.0399 63.5134 30.8949 63.4092 30.7199C62.5682 29.3095 62.2167 27.8963 62.3647 26.5193C62.478 25.4651 62.8516 24.7548 63.1811 24.1281C63.4426 23.6799 63.6398 23.1972 63.7669 22.694C64.0063 21.6422 63.8342 20.4398 63.2552 19.1202C63.1932 18.9788 63.1597 18.8266 63.1565 18.6722C63.1533 18.5178 63.1806 18.3643 63.2367 18.2205C63.2928 18.0767 63.3768 17.9453 63.4837 17.8339C63.5906 17.7225 63.7184 17.6332 63.8598 17.5712C64.1454 17.446 64.469 17.4393 64.7595 17.5527C64.9033 17.6088 65.0347 17.6927 65.1461 17.7996C65.2575 17.9065 65.3468 18.0343 65.4088 18.1757C66.1942 19.9667 66.4132 21.6624 66.0597 23.2156C65.8891 23.9185 65.6207 24.594 65.2624 25.2223C64.9755 25.7681 64.768 26.1625 64.7028 26.7704C64.6103 27.6295 64.8547 28.5528 65.4286 29.5155C65.5349 29.6939 65.5921 29.8972 65.5943 30.1049C65.5966 30.3125 65.5438 30.5171 65.4413 30.6977C65.3389 30.8784 65.1904 31.0287 65.0111 31.1333C64.8317 31.238 64.6278 31.2933 64.4201 31.2936H64.42ZM11.311 14.7432C11.1072 14.7434 10.9068 14.6907 10.7296 14.5901C10.5523 14.4895 10.4042 14.3445 10.2999 14.1694C9.45905 12.7595 9.10759 11.3462 9.25557 9.96888C9.36875 8.91482 9.74231 8.20439 10.0718 7.57766C10.3334 7.12947 10.5307 6.64673 10.6578 6.14362C10.897 5.09175 10.7249 3.8894 10.1461 2.56979C10.0841 2.42839 10.0506 2.27616 10.0474 2.12178C10.0442 1.96741 10.0715 1.81393 10.1276 1.6701C10.241 1.37961 10.4652 1.14607 10.7508 1.02085C11.0363 0.895621 11.36 0.888972 11.6504 1.00236C11.9409 1.11575 12.1745 1.33989 12.2997 1.62547C13.0851 3.4163 13.3039 5.11182 12.9506 6.66531C12.78 7.36817 12.5115 8.04361 12.1531 8.67184C11.8663 9.21768 11.6589 9.61209 11.5935 10.22C11.5012 11.0791 11.7456 12.0027 12.3196 12.965C12.426 13.1434 12.4832 13.3468 12.4855 13.5545C12.4878 13.7622 12.435 13.9668 12.3325 14.1475C12.23 14.3281 12.0815 14.4784 11.9021 14.5831C11.7227 14.6877 11.5187 14.7429 11.311 14.7432Z" fill="#95989B"/>
<path d="M59.1781 53.0336C60.8976 53.3616 62.9957 53.7861 64.3305 55.0107C67.3737 57.8023 62.99 59.3283 60.6557 59.9123C56.7159 60.898 48.7603 60.5534 46.1394 54.7107C43.9063 49.7321 47.2472 44.5388 47.5433 44.0938C47.5807 45.3312 47.8717 46.5479 48.3983 47.6684C48.6551 48.2129 49.1635 49.391 50.3258 50.3406C52.0737 51.7687 54.4301 52.2735 56.6052 52.6171C57.2217 52.7146 58.1516 52.838 59.1781 53.0336Z" fill="#FF8E66"/>
<path d="M64.3283 55.0107C62.9935 53.7861 60.8953 53.3616 59.1759 53.0336C58.1495 52.838 57.2196 52.7146 56.603 52.6171C54.428 52.2735 52.0715 51.7687 50.3237 50.3406C49.1613 49.391 48.6529 48.2129 48.3961 47.6684C47.8695 46.5479 47.5785 45.3312 47.5412 44.0938C46.6116 45.5558 45.9532 47.1736 45.5977 48.8693C45.72 49.2626 45.8694 49.647 46.0447 50.0198C46.3014 50.5643 46.8099 51.7425 47.9723 52.692C49.7201 54.1201 52.0766 54.6249 54.2516 54.9685C54.8681 55.066 55.798 55.1894 56.8245 55.385C58.544 55.713 60.6421 56.1375 61.9769 57.3621C62.6989 58.0244 63.0024 58.6154 63.0148 59.1396C64.9298 58.316 66.4725 56.9776 64.3285 55.0105L64.3283 55.0107Z" fill="#FF7C4E"/>
</g>
<defs>
<clipPath id="clip0_2410_5349">
<rect width="80.2613" height="80.2613" fill="white" transform="translate(0.265625 0.921875)"/>
</clipPath>
</defs>
</svg>
