<svg width="19" height="18" viewBox="0 0 19 18" fill="none" xmlns="http://www.w3.org/2000/svg">
<g id="noto:fire">
<g id="Group 2145">
<path id="Vector" d="M6.60108 6.14461C6.53676 6.83065 6.49163 8.04474 6.8967 8.56152C6.8967 8.56152 6.70601 7.22782 8.41545 5.55449C9.10374 4.88087 9.26284 3.96465 9.0225 3.27749C8.88597 2.88821 8.63661 2.56664 8.41997 2.3421C8.29359 2.21008 8.39063 1.99231 8.57455 2.00021C9.6871 2.04986 11.4902 2.35902 12.2563 4.28172C12.5926 5.12572 12.6174 5.99793 12.4572 6.88481C12.3556 7.45123 11.9946 8.71046 12.8182 8.86505C13.4061 8.97562 13.6905 8.50849 13.818 8.17225C13.871 8.03233 14.0549 7.99735 14.1542 8.10906C15.1471 9.23853 15.2318 10.5688 15.0264 11.7141C14.6292 13.9279 12.3872 15.5392 10.1599 15.5392C7.37738 15.5392 5.16244 13.9471 4.58811 11.0653C4.3568 9.90199 4.47415 7.60017 6.26822 5.97536C6.40136 5.8535 6.61913 5.96182 6.60108 6.14461Z" fill="url(#paint0_radial_21533_7520)"/>
<path id="Vector_2" d="M11.1766 10.2854C10.151 8.96526 10.6102 7.45892 10.8618 6.85864C10.8957 6.77966 10.8054 6.70519 10.7343 6.75371C10.2931 7.05385 9.38934 7.76019 8.96847 8.75426C8.39866 10.0981 8.43928 10.7559 8.77665 11.5593C8.97975 12.0434 8.74393 12.1461 8.62545 12.1641C8.51036 12.1822 8.4043 12.1054 8.31967 12.0253C8.07622 11.7916 7.90273 11.4946 7.81869 11.1678C7.80064 11.0978 7.70924 11.0786 7.66749 11.1362C7.35155 11.5729 7.18795 12.2736 7.18005 12.7689C7.15522 14.3001 8.4201 15.5412 9.95013 15.5412C11.8785 15.5412 13.2833 13.4087 12.1752 11.6259C11.8536 11.1069 11.5512 10.7672 11.1766 10.2854Z" fill="url(#paint1_radial_21533_7520)"/>
</g>
</g>
<defs>
<radialGradient id="paint0_radial_21533_7520" cx="0" cy="0" r="1" gradientUnits="userSpaceOnUse" gradientTransform="translate(9.60876 15.5743) rotate(-179.751) scale(7.96471 13.0685)">
<stop offset="0.314" stop-color="#FF9800"/>
<stop offset="0.662" stop-color="#FF6D00"/>
<stop offset="0.972" stop-color="#F44336"/>
</radialGradient>
<radialGradient id="paint1_radial_21533_7520" cx="0" cy="0" r="1" gradientUnits="userSpaceOnUse" gradientTransform="translate(10.0562 7.64943) rotate(90.5787) scale(8.33353 6.27161)">
<stop offset="0.214" stop-color="#FFF176"/>
<stop offset="0.328" stop-color="#FFF27D"/>
<stop offset="0.487" stop-color="#FFF48F"/>
<stop offset="0.672" stop-color="#FFF7AD"/>
<stop offset="0.793" stop-color="#FFF9C4"/>
<stop offset="0.822" stop-color="#FFF8BD" stop-opacity="0.804"/>
<stop offset="0.863" stop-color="#FFF6AB" stop-opacity="0.529"/>
<stop offset="0.91" stop-color="#FFF38D" stop-opacity="0.209"/>
<stop offset="0.941" stop-color="#FFF176" stop-opacity="0"/>
</radialGradient>
</defs>
</svg>
